# xmcd
#
# Track frame offsets: 
#        200
#        13077
#        29822
#        51940
#        81425
#        100592
#        118162
#        139775
#        163857
#        187910
#        203477
#        219562
#        241197
#        253842
#
# Disc length: 3709 seconds
#
# Revision: 3
# Processed by: cddbd v1.5.1PL2 Copyright (c) Steve Scherf et al.
# Submitted via: ExactAudioCopy v0.95a5
#
DISCID=c60e7b0e
DTITLE=Omar and The Howlers - Live at Paradiso
DYEAR=1992
DGENRE=Blues
TTITLE0=Shake For Me
TTITLE1=Don't You Know
TTITLE2=Mississippi Hoo Doo Man
TTITLE3=Lee Anne
TTITLE4=Leave Here Running
TTITLE5=Border Girl
TTITLE6=Born On The Bayou
TTITLE7=Magic Man
TTITLE8=Sleeping In The Ground
TTITLE9=Big Round World
TTITLE10=Don't Rock Me The Wrong Way
TTITLE11=Hard Times In The Land Of Plenty
TTITLE12=Big Chief Pontiac
TTITLE13=Rock and Roll Ball
EXTD=YEAR: 1992
EXTT0=
EXTT1=
EXTT2=
EXTT3=
EXTT4=
EXTT5=
EXTT6=
EXTT7=
EXTT8=
EXTT9=
EXTT10=
EXTT11=
EXTT12=
EXTT13=
PLAYORDER=
